<svg width="25" height="24" viewBox="0 0 25 24" fill="none" xmlns="http://www.w3.org/2000/svg">
<path d="M4.15344 7C4.15344 6.73478 4.2588 6.48043 4.44634 6.29289C4.63387 6.10536 4.88823 6 5.15344 6H19.1534C19.4187 6 19.673 6.10536 19.8605 6.29289C20.0481 6.48043 20.1534 6.73478 20.1534 7C20.1534 7.26522 20.0481 7.51957 19.8605 7.70711C19.673 7.89464 19.4187 8 19.1534 8H5.15344C4.88823 8 4.63387 7.89464 4.44634 7.70711C4.2588 7.51957 4.15344 7.26522 4.15344 7ZM4.15344 12C4.15344 11.7348 4.2588 11.4804 4.44634 11.2929C4.63387 11.1054 4.88823 11 5.15344 11H19.1534C19.4187 11 19.673 11.1054 19.8605 11.2929C20.0481 11.4804 20.1534 11.7348 20.1534 12C20.1534 12.2652 20.0481 12.5196 19.8605 12.7071C19.673 12.8946 19.4187 13 19.1534 13H5.15344C4.88823 13 4.63387 12.8946 4.44634 12.7071C4.2588 12.5196 4.15344 12.2652 4.15344 12ZM4.15344 17C4.15344 16.7348 4.2588 16.4804 4.44634 16.2929C4.63387 16.1054 4.88823 16 5.15344 16H19.1534C19.4187 16 19.673 16.1054 19.8605 16.2929C20.0481 16.4804 20.1534 16.7348 20.1534 17C20.1534 17.2652 20.0481 17.5196 19.8605 17.7071C19.673 17.8946 19.4187 18 19.1534 18H5.15344C4.88823 18 4.63387 17.8946 4.44634 17.7071C4.2588 17.5196 4.15344 17.2652 4.15344 17Z" fill="white"/>
</svg>
